<?xml version="1.0" encoding="UTF-8"?>
<!-- Generator: Adobe Illustrator 22.0.1, SVG Export Plug-In . SVG Version: 6.00 Build 0)  -->
<svg version="1.1" id="Capa_1" xmlns="http://www.w3.org/2000/svg" xmlns:xlink="http://www.w3.org/1999/xlink" x="0px" y="0px" viewBox="0 0 370.4 96.2" style="enable-background:new 0 0 370.4 96.2;" xml:space="preserve">
<style type="text/css">
	.st0{fill:#1E1E1E;}
</style>
<g>
	<path class="st0" d="M87,50.9l0.8,5.1h12.4L90.1,8.8H71.9L61.5,56h12.3l0.8-5.1H87z M78.7,28.6l1.4-7.3h1.5l1.4,7.3l2.3,12.5h-9.1   L78.7,28.6z"/>
	<polygon class="st0" points="138.2,55.9 150,55.9 150,8.8 138.6,8.8 138.6,21.6 139,31 137.5,31 129.4,8.8 116.6,8.8 116.6,55.9    128,55.9 128,39 127.6,30.8 129,30.8  "/>
	<polygon class="st0" points="215.5,8.8 182.8,8.8 182.8,18.6 193.3,18.6 193.3,55.9 205.1,55.9 205.1,18.6 215.5,18.6  "/>
	<path class="st0" d="M253.7,55.9h12.1l-5.4-19.7l0.2-0.2c2.8-2.8,4.1-6.6,4.1-11.3v-0.9c0-4.8-1.3-8.6-3.9-11.2   c-2.6-2.6-6.5-3.9-11.5-3.9h-17.4v47.2h11.9V41.6h6.6L253.7,55.9z M243.9,32.3V18.6h2.9c1.8,0,3.2,0.6,4.2,1.7   c1,1.1,1.5,2.7,1.5,4.7v0.5c0,3.1-1,6.8-5.7,6.8H243.9z"/>
	<polygon class="st0" points="307.8,36.7 307.8,27.3 294.2,27.3 294.2,18.6 309,18.6 309,8.8 282.2,8.8 282.2,55.9 309.2,55.9    309.2,46.1 294.2,46.1 294.2,36.7  "/>
	<path class="st0" d="M330,53.1c2.8,2.4,6.7,3.6,11.9,3.6c5,0,9-1.4,11.9-4.2c2.9-2.8,4.4-6.6,4.4-11.3v-0.3c0-2.1-0.3-3.9-0.8-5.4   c-0.5-1.5-1.3-2.8-2.3-3.8c-1-1-2.2-1.9-3.4-2.5c-1.3-0.6-2.8-1.2-4.6-1.7l-6.4-1.7c-1.2-0.4-2.1-0.9-2.6-1.5   c-0.6-0.6-0.8-1.5-0.8-2.5v0c0-1.1,0.4-2.1,1.2-2.8c0.8-0.7,1.8-1.1,3.1-1.1c2.9,0,4.5,1.6,4.5,4.5v0h11.3V21   c0-3.9-1.4-7.1-4.1-9.4c-2.7-2.3-6.6-3.5-11.6-3.5c-5.2,0-9.3,1.4-12,4c-2.7,2.7-4.1,6.1-4.1,10.3v0.3c0,3.9,0.9,6.9,2.5,9   c1.7,2.1,4.4,3.6,8.1,4.5l5.9,1.4c2.8,0.8,4.3,2.3,4.3,4.6v0.3c0,1.3-0.4,2.4-1.2,3.2c-0.8,0.8-1.9,1.3-3.2,1.3   c-1.4,0-2.5-0.5-3.3-1.4c-0.8-0.9-1.2-2-1.2-3.4v-0.3h-11.5v1.4C325.9,47.5,327.3,50.8,330,53.1z"/>
	<path class="st0" d="M45.1,28.3v-4.7c0-5.1-1.4-9-4.1-11.6c-2.7-2.6-6.8-3.9-12.1-3.9c-5.4,0-9.6,1.5-12.4,4.6   c-2.8,3.1-4.3,7.6-4.3,13.5v12.3c0,5.9,1.4,10.5,4.3,13.5c2.8,3,7,4.6,12.4,4.6c5.2,0,9.3-1.3,12-3.9c2.8-2.6,4.2-6.5,4.2-11.5v-5   H33.4V47h-9l0-5.4V17.8h9v0.5v10L45.1,28.3z"/>
	<g>
		<g>
			<path class="st0" d="M116.6,87.9v-0.6c1,0,1.5-0.2,1.5-1.1v-7.2c0-0.9-0.5-1.1-1.5-1.1v-0.6h8.2V80h-0.4c-0.6-1.3-1-1.9-2.2-1.9     h-2.6v4.3h2.3c0.7,0,0.9-0.5,1.1-1.4h0.5v3.4h-0.5c-0.2-0.9-0.4-1.4-1.1-1.4h-2.3v3.1c0,0.9,0.7,1,1.9,1.1v0.6H116.6z"/>
			<path class="st0" d="M139.1,82.5c0,3.4-2.3,5.6-5,5.6c-3.1,0-4.9-2.4-4.9-5.2c0-3.4,2.3-5.6,5-5.6     C137.3,77.2,139.1,79.7,139.1,82.5z M137.5,82.7c0-2.3-1-4.6-3.5-4.6c-2.1,0-3.2,2-3.2,4.6c0,2.3,1,4.6,3.5,4.6     C136.4,87.3,137.5,85.3,137.5,82.7z"/>
			<path class="st0" d="M148,77.4c2.7,0,3.9,1.2,3.9,3c0,1.7-1.5,2.7-2.9,2.8l2.5,3.1c0.5,0.6,1.1,1,1.9,1.1v0.6h-2.2     c-0.6-0.3-0.9-0.7-1.4-1.3l-2.5-3.3h-0.8v2.9c0,0.9,0.5,1.1,1.5,1.1v0.6h-4.5v-0.6c1,0,1.5-0.2,1.5-1.1v-7.2     c0-0.9-0.5-1.1-1.5-1.1v-0.6H148z M146.5,78.1v4.6h1.1c1.8,0,2.6-0.8,2.6-2.3c0-1.3-0.8-2.3-2.7-2.3H146.5z"/>
			<path class="st0" d="M167.2,79.6l-3.2,8.3h-0.5l-3.4-8.4l-0.8,6.5c0,0.1,0,0.3,0,0.4c0,0.7,0.4,0.9,1.4,1v0.6h-3.6v-0.6     c0.9,0,1.2-0.2,1.3-0.9l0.9-7.4c0-0.8-0.3-1.1-1.3-1.1v-0.6h2.8c0,0.3,0.1,0.5,0.2,0.8l3,7.6l2.8-7.6c0.1-0.3,0.2-0.5,0.2-0.8     h2.7V78c-1,0-1.3,0.3-1.3,1.1l0.9,7.4c0.1,0.7,0.4,0.9,1.2,0.9v0.6h-4.1v-0.6c1.1,0,1.4-0.2,1.4-1c0,0,0-0.3,0-0.4L167.2,79.6z"/>
			<path class="st0" d="M181.4,84.2c-0.2-0.9-0.4-1.4-1.1-1.4h-2.6v3.3c0,0.8,0.5,1,1.5,1h1.5c1.3,0,1.6-0.4,2.5-2h0.4l-0.5,2.7     h-8.5v-0.6c1,0,1.5-0.2,1.5-1.1v-7.2c0-0.9-0.5-1.1-1.5-1.1v-0.6h8.4v2.5h-0.4c-0.5-1.3-1-1.8-2.2-1.8h-2.9v4.1h2.6     c0.7,0,0.9-0.5,1.1-1.4h0.5v3.4H181.4z"/>
			<path class="st0" d="M189.7,78.9c-0.6-0.7-0.8-0.9-1.5-0.9v-0.6h2.6l6.3,7.9v-6.2c0-0.9-0.5-1.1-1.5-1.1v-0.6h3.9V78     c-1,0-1.5,0.2-1.5,1.1v8.9h-0.6l-6.7-8.3v6.7c0,0.9,0.5,1.1,1.5,1.1v0.6h-3.9v-0.6c1,0,1.5-0.2,1.5-1.1V78.9z"/>
			<path class="st0" d="M212.6,77.4l0.2,3.1h-0.5c-0.9-2.1-1.1-2.5-2.4-2.5h-1.1v8.2c0,0.9,0.6,1.1,1.6,1.1v0.6h-4.6v-0.6     c1,0,1.6-0.2,1.6-1.1v-8.2h-1.1c-1.4,0-1.5,0.4-2.4,2.5h-0.5l0.2-3.1H212.6z"/>
			<path class="st0" d="M223.5,84.2c-0.2-0.9-0.4-1.4-1.1-1.4h-2.6v3.3c0,0.8,0.5,1,1.5,1h1.5c1.3,0,1.6-0.4,2.5-2h0.4l-0.5,2.7     h-8.5v-0.6c1,0,1.5-0.2,1.5-1.1v-7.2c0-0.9-0.5-1.1-1.5-1.1v-0.6h8.4v2.5h-0.4c-0.5-1.3-1-1.8-2.2-1.8h-2.9v4.1h2.6     c0.7,0,0.9-0.5,1.1-1.4h0.5v3.4H223.5z"/>
			<path class="st0" d="M234.7,77.4c2.7,0,3.9,1.2,3.9,3c0,1.7-1.5,2.7-2.9,2.8l2.5,3.1c0.5,0.6,1.1,1,1.9,1.1v0.6H238     c-0.6-0.3-0.9-0.7-1.4-1.3l-2.5-3.3h-0.8v2.9c0,0.9,0.5,1.1,1.5,1.1v0.6h-4.5v-0.6c1,0,1.5-0.2,1.5-1.1v-7.2     c0-0.9-0.5-1.1-1.5-1.1v-0.6H234.7z M233.3,78.1v4.6h1.1c1.8,0,2.6-0.8,2.6-2.3c0-1.3-0.8-2.3-2.7-2.3H233.3z"/>
			<path class="st0" d="M251,84.5h-4.4l-0.7,1.6c-0.1,0.2-0.2,0.4-0.2,0.6c0,0.5,0.4,0.6,1.4,0.7v0.6h-3.4v-0.6     c0.4-0.1,0.8-0.2,0.9-0.6l3.6-8.6l-0.5-1h1.7l4.1,9.6c0.2,0.4,0.5,0.5,0.9,0.6v0.6h-4v-0.6c1,0,1.4-0.2,1.4-0.6     c0-0.2-0.1-0.4-0.2-0.6L251,84.5z M246.8,83.8h3.9l-2-4.7L246.8,83.8z"/>
		</g>
	</g>
</g>
</svg>